<?xml version="1.0" encoding="iso-8859-1"?>
<!-- Generator: Adobe Illustrator 19.0.0, SVG Export Plug-In . SVG Version: 6.00 Build 0)  -->
<svg version="1.1" id="Capa_1" xmlns="http://www.w3.org/2000/svg" xmlns:xlink="http://www.w3.org/1999/xlink" x="0px" y="0px"
	 viewBox="0 0 469.333 469.333" style="enable-background:new 0 0 469.333 469.333;" xml:space="preserve">
<g fill="#fff">
	<g>
		<g>
			<path d="M170.688,303.323c-0.824-8.456-6.949-27.712-20.415-49.435C143.139,255.152,135.758,256,128,256
				c-51.042,0-85.333-25.719-85.333-64S76.958,128,128,128c0.658,0,1.267,0.107,1.921,0.116c2.19-3.057,4.582-6.047,7.434-8.866
				c9.333-9.229,21.229-14.104,34.396-14.104c34.646,0,68,36.542,84.167,62.104V128c0-0.256,0.077-0.499,0.083-0.755V74.667v-32
				C256,19.135,236.854,0,213.333,0h-32H74.667h-32C19.146,0,0,19.135,0,42.667v32v234.667v32C0,364.865,19.146,384,42.667,384h32
				h106.667c5.777,0,10.413-4.602,10.599-10.333c-17.506-26.546-19.921-44.348-20.766-62.833
				C171.042,308.333,170.917,305.896,170.688,303.323z M213.333,21.333c11.771,0,21.333,9.573,21.333,21.333v20.254
				c-20.87-4.253-37.336-20.721-41.589-41.587H213.333z M128,64c11.771,0,21.333,9.573,21.333,21.333
				c0,11.76-9.563,21.333-21.333,21.333c-11.771,0-21.333-9.573-21.333-21.333C106.667,73.573,116.229,64,128,64z M21.333,42.667
				c0-11.76,9.563-21.333,21.333-21.333h20.255c-4.253,20.866-20.719,37.335-41.589,41.587V42.667z M42.667,362.667
				c-11.771,0-21.333-9.573-21.333-21.333v-20.254c20.87,4.253,37.336,20.721,41.589,41.587H42.667z M128,320
				c-11.771,0-21.333-9.573-21.333-21.333s9.563-21.333,21.333-21.333c11.771,0,21.333,9.573,21.333,21.333S139.771,320,128,320z"/>
			<path d="M467.044,367.609c-0.313-0.396-30.953-39.362-40.889-70.505c-2.375-7.406-5.313-17.842-8.686-29.801
				c-16.227-57.34-30.974-106.118-47.326-122.305c-3.708-3.667-14.999-14.833-80.176-27.447c-3.145-0.667-6.302,0.219-8.759,2.24
				c-2.458,2.031-3.875,5.042-3.875,8.229v73.109c0,4.375,2.667,8.313,6.749,9.917l5.698,2.281
				c1.646,5.717,4.438,14.905,7.208,22.113c-1.25,2.238-2.375,4.738-3.542,7.384c-1.938,4.375-4.063,9.156-7.02,12.865
				c-15.852-11.146-32.12-40.862-41.952-64.934C236.852,172.111,200.807,128,170.667,128c-7.436,0-13.01,1.238-18.26,6.436
				c-25.767,25.509-11.039,68.798,9.415,98.13c16.331,23.405,28.434,51.059,30.141,68.798c0.292,2.936,0.417,5.738,0.542,8.488
				c0.708,15.28,1.458,31.072,22.831,60.142c11.456,15.594,26.411,24.551,42.221,34.04c21.747,13.04,44.243,26.54,63.866,60.027
				c1.915,3.26,5.415,5.271,9.206,5.271c101.484,0,137.646-90.349,137.979-91.255C469.981,374.547,469.376,370.568,467.044,367.609z
				"/>
		</g>
	</g>
</g>
<g>
</g>
<g>
</g>
<g>
</g>
<g>
</g>
<g>
</g>
<g>
</g>
<g>
</g>
<g>
</g>
<g>
</g>
<g>
</g>
<g>
</g>
<g>
</g>
<g>
</g>
<g>
</g>
<g>
</g>
</svg>
