<svg xmlns="http://www.w3.org/2000/svg" viewBox="0 0 968.39 975.27"><defs><style>.cls-1{fill:#dad3d6;stroke:#dad3d6;stroke-miterlimit:10;stroke-width:2px;}</style></defs><g id="Layer_2" data-name="Layer 2"><g id="Layer_1-2" data-name="Layer 1"><path class="cls-1" d="M4.71,1H1C1,261,102.24,505.4,286.08,689.23c182.2,182.2,423.92,283.26,681.31,285v-3.72C435.92,966.82,4.71,533.33,4.71,1Z"/><path class="cls-1" d="M42.32,1H38.61c0,249.93,97.33,484.91,274.06,661.64,175.1,175.1,407.37,272.24,654.72,274v-3.72C456.66,929.21,42.32,512.59,42.32,1Z"/><path class="cls-1" d="M79.93,1H76.22c0,239.89,93.42,465.42,263,635,168,168,390.82,261.23,628.12,263v-3.71C477.4,891.6,79.93,491.85,79.93,1Z"/><path class="cls-1" d="M117.54,1h-3.71c0,229.84,89.5,445.93,252,608.45,160.89,160.89,374.27,250.21,601.53,252v-3.72C498.14,854,117.54,471.11,117.54,1Z"/><path class="cls-1" d="M155.15,1h-3.71c0,219.8,85.59,426.44,241,581.86,153.79,153.78,357.73,239.19,574.94,241v-3.72C518.88,816.38,155.15,450.38,155.15,1Z"/><path class="cls-1" d="M192.76,1h-3.71c0,430.68,348.52,781.48,778.34,785.21V782.5C539.62,778.77,192.76,429.64,192.76,1Z"/><path class="cls-1" d="M230.37,1h-3.71c0,409.94,331.65,743.88,740.73,747.6v-3.71C560.36,741.17,230.37,408.9,230.37,1Z"/><path class="cls-1" d="M268,1h-3.71c0,389.21,314.78,706.27,703.12,710v-3.71C581.09,703.56,268,388.16,268,1Z"/><path class="cls-1" d="M305.59,1h-3.71c0,368.47,297.91,668.66,665.51,672.38v-3.71C601.83,666,305.59,367.42,305.59,1Z"/><path class="cls-1" d="M343.2,1h-3.71c0,347.73,281,631.05,627.9,634.77v-3.71C622.57,628.34,343.2,346.68,343.2,1Z"/><path class="cls-1" d="M380.81,1H377.1c0,327,264.16,593.44,590.29,597.16v-3.71C643.31,590.73,380.81,326,380.81,1Z"/><path class="cls-1" d="M418.42,1h-3.71c0,306.25,247.29,555.84,552.68,559.55v-3.71C664.05,553.13,418.42,305.21,418.42,1Z"/><path class="cls-1" d="M456,1h-3.71c0,285.51,230.42,518.23,515.07,521.94v-3.71C684.78,515.51,456,284.47,456,1Z"/><path class="cls-1" d="M493.64,1h-3.71c0,264.78,213.55,480.61,477.46,484.33v-3.71C705.53,477.9,493.64,263.73,493.64,1Z"/><path class="cls-1" d="M531.25,1h-3.71c0,244,196.68,443,439.85,446.71V444C726.26,440.29,531.25,243,531.25,1Z"/><path class="cls-1" d="M568.86,1h-3.71c0,223.3,179.81,405.39,402.24,409.09v-3.71C747,402.68,568.86,222.25,568.86,1Z"/><path class="cls-1" d="M606.47,1h-3.71c0,202.56,162.94,367.78,364.63,371.48v-3.71C767.74,365.07,606.47,201.51,606.47,1Z"/><path class="cls-1" d="M644.08,1h-3.71c0,181.82,146.07,330.15,327,333.85v-3.71C788.48,327.44,644.08,180.78,644.08,1Z"/><path class="cls-1" d="M681.69,1H678c0,161.08,129.2,292.55,289.41,296.24v-3.71C809.22,289.84,681.69,160,681.69,1Z"/><path class="cls-1" d="M719.3,1h-3.71c0,140.34,112.33,254.94,251.8,258.62v-3.71C830,252.23,719.3,139.3,719.3,1Z"/><path class="cls-1" d="M756.91,1H753.2c0,119.6,95.46,217.32,214.19,221v-3.71C850.71,214.61,756.91,118.56,756.91,1Z"/><path class="cls-1" d="M794.52,1h-3.71c0,98.87,78.59,179.7,176.58,183.36v-3.72C871.45,177,794.52,97.82,794.52,1Z"/><path class="cls-1" d="M832.13,1h-3.71c0,78.12,61.73,142.1,139,145.72V143C892.19,139.39,832.13,77.08,832.13,1Z"/><path class="cls-1" d="M869.74,1H866A108.41,108.41,0,0,0,967.39,109.05v-3.72A104.69,104.69,0,0,1,869.74,1Z"/><path class="cls-1" d="M907.35,1h-3.71a70.77,70.77,0,0,0,63.75,70.33V67.6A67,67,0,0,1,907.35,1Z"/><path class="cls-1" d="M945,1h-3.71a33.09,33.09,0,0,0,26.14,32.32v-3.8A29.4,29.4,0,0,1,945,1Z"/></g></g></svg>