<svg xmlns="http://www.w3.org/2000/svg" xmlns:xlink="http://www.w3.org/1999/xlink" viewBox="0 0 78.06 60.19"><defs><style>.cls-1{isolation:isolate;}.cls-2{fill:#fff;fill-rule:evenodd;}.cls-3,.cls-4,.cls-5{mix-blend-mode:multiply;}.cls-3{fill:url(#linear-gradient);}.cls-4{fill:url(#linear-gradient-2);}.cls-5{fill:url(#linear-gradient-3);}.cls-6{mix-blend-mode:screen;fill:url(#linear-gradient-4);}.cls-7{fill:#231f20;}</style><linearGradient id="linear-gradient" x1="246.27" y1="44.28" x2="216.44" y2="74.11" gradientTransform="matrix(-0.99, 0.16, 0.16, 0.99, 288.79, -31.06)" gradientUnits="userSpaceOnUse"><stop offset="0" stop-color="#fcfcfc"/><stop offset="1" stop-color="#c3c4c6"/></linearGradient><linearGradient id="linear-gradient-2" x1="227.9" y1="25.08" x2="230.93" y2="23.02" xlink:href="#linear-gradient"/><linearGradient id="linear-gradient-3" x1="245.57" y1="66.59" x2="245.57" y2="-12.38" gradientTransform="matrix(-0.99, 0.16, 0.16, 0.99, 288.79, -31.06)" gradientUnits="userSpaceOnUse"><stop offset="0" stop-color="#fcfcfc"/><stop offset="0.25" stop-color="#f4f4f5"/><stop offset="0.62" stop-color="#dfe0e1"/><stop offset="1" stop-color="#c3c4c6"/></linearGradient><linearGradient id="linear-gradient-4" x1="272.68" y1="46.25" x2="265.47" y2="53.46" gradientTransform="matrix(-0.99, 0.16, 0.16, 0.99, 288.79, -31.06)" gradientUnits="userSpaceOnUse"><stop offset="0" stop-color="#fff"/><stop offset="0.09" stop-color="#f9f9f9"/><stop offset="0.22" stop-color="#e9e9e9"/><stop offset="0.36" stop-color="#cecece"/><stop offset="0.51" stop-color="#a8a8a8"/><stop offset="0.67" stop-color="#777"/><stop offset="0.84" stop-color="#3c3c3c"/><stop offset="0.99"/></linearGradient></defs><title>chef-hat</title><g class="cls-1"><g id="Layer_1" data-name="Layer 1"><path class="cls-2" d="M80.05,59.36c11-4.18,12.6-18.82,4.66-21.52,4-6.39-11.65-19.87-19-10.84-3.74-10.89-21.67-7.3-22.2-.23-7-5.62-19.65.59-16.32,10.5-13.45-.43-12.12,11.17-8.77,15.36C8.36,58,18.52,72.86,27.64,68.31c0,4.39,5,9.36,5,9.36,6.1-7.21,31.33-17.35,45.6-10.23a16.77,16.77,0,0,0,1.78-8.17Z" transform="translate(-12.89 -18.7)"/><path class="cls-3" d="M66.48,65c4.06-5.66,4-12.74-3-14.31-11.36-2.54-29.36,7.14-29.36,7.14,2.45-1.94,6.78-7.71,16.89-10.21s17.76-3.38,24,2.46A30.75,30.75,0,0,1,81,59a9.41,9.41,0,0,1-1,.41v-.09a16.77,16.77,0,0,1-1.78,8.17A26.24,26.24,0,0,0,66.48,65Z" transform="translate(-12.89 -18.7)"/><path class="cls-4" d="M64.79,35.64s1.42-6.9,1.75-9.52a7.8,7.8,0,0,1,1-.83c.49.63,1.37-.62,2,0C68.31,26.13,68,31.29,64.79,35.64Z" transform="translate(-12.89 -18.7)"/><path class="cls-5" d="M18.88,59.66c1.08-1.17,1.26-2.24,2.51-1.7s4.73.25,4.73.25a24.41,24.41,0,0,1-3.05-3.78c-1.47-2.26-1.68-3.5-1.22-5.27s0-4.51,1.15-6.33c.77-1.23,2.59-2,3.51-.77s4.46,2.82,6.37,3.46a24.84,24.84,0,0,1-1.72-4.19,9,9,0,0,1,6.55-10.78c4.36-1.14,6,.84,6.6,1.63a17.93,17.93,0,0,1,2.78,5.35v0a4.88,4.88,0,0,0,7,3.46l1.19-.58c3.51-1.75,3.36-4.78,3.88-8.2s2.24-9.44-4.69-11.71c0,0,6,.79,6.82,1.12A9.47,9.47,0,0,1,65.72,27l.29-.34c-.07,3.88-2.56,11.68-3.32,13.61C61.8,42.54,62,43,63.85,43.21s6-2.35,9.57-2.62,1.06-3.92,3.44-4.53c7.56-1.94-1-10.17-7-10.81C70,24.64,71.76,25,71.8,24c7.46-.16,16,9,12.91,13.86l.16.06a7.51,7.51,0,0,0-1.36,2.18c-.2,1.11-3.2,5.05-5.25,6.56,0,0,5.77-2.34,8.55-7.14,0,0,.51.62,1,.5,3.86,4.78,1.23,15-6.89,19-1.21-2.66-4-9.11-8.38-10.79C67,46,63.25,44.49,52.33,47.42a42.91,42.91,0,0,0-6.65,2.42c-.52,1.12-4.31,2.6-7.54,4.38a27.39,27.39,0,0,0-7.22,7,32.46,32.46,0,0,0-2.26,4.16c-.17.62-.56,1.74-1,3a.43.43,0,0,1,0,0c-.13.07-.27.12-.41.18h0c-.09,0-.19.08-.28.12l-.11,0c-.23.08-.45.16-.67.22l-.15,0-.66.14h-.14l-.6.07h-1a8.54,8.54,0,0,1-2.06-.4,9.72,9.72,0,0,1-3-4.7C18.09,62.44,17.79,60.83,18.88,59.66Z" transform="translate(-12.89 -18.7)"/><path class="cls-6" d="M32.38,72.61c-1.11,1.26-4-6-1.65-10s6.71-5.84,8.05-5.75S36.19,68.25,32.38,72.61Z" transform="translate(-12.89 -18.7)"/><path class="cls-7" d="M12.94,60.31q0-.31,0-.63c0-.12,0-.23,0-.35l0-.35c0-.24,0-.47.09-.69A6,6,0,0,1,13.4,57a6.26,6.26,0,0,1,.54-1l.08-.12a6.82,6.82,0,0,1,.66-.81c2-1.86,1.13-4.23.77-5.31a11.56,11.56,0,0,1-.57-3.37,11.1,11.1,0,0,1,.48-3.4,9.63,9.63,0,0,1,1.49-3c.17-.22.37-.47.52-.63a4.93,4.93,0,0,1,.62-.59,5.62,5.62,0,0,1,1.33-.87c3.89-1.69,6.45-2.3,6.43-3a9.56,9.56,0,0,1,.19-2.24,9.81,9.81,0,0,1,2-4.27,11.44,11.44,0,0,1,3.75-3A12.9,12.9,0,0,1,36.25,24a10.65,10.65,0,0,1,4.57.49c.72.25,2.57.77,2.65.35a4.56,4.56,0,0,1,.68-1.66,7.51,7.51,0,0,1,3-2.45A16.65,16.65,0,0,1,49,19.94c.65-.21,1.32-.4,2-.56.35-.08.69-.16,1-.22s.7-.13,1.06-.18l.55-.09.52-.07,1.14-.1a15,15,0,0,1,2.32,0A12.14,12.14,0,0,1,60,19.2a10.05,10.05,0,0,1,4.25,2.44C65.41,22.78,67,24.24,68,24c.79-.19,1.85-.57,2.85-.8a9.27,9.27,0,0,1,3.31-.15,12.38,12.38,0,0,1,3.51,1A17.63,17.63,0,0,1,81,26a13.5,13.5,0,0,1,2.79,3,12.48,12.48,0,0,1,1.73,3.65,10.46,10.46,0,0,1,.4,3.92c0,.5,2.26,2.86,2.76,3.39a8.89,8.89,0,0,1,2,4.43,8.83,8.83,0,0,1,.16,1c0,.28.07.73.09,1l0,.29v.4l0,.64a7.61,7.61,0,0,1-.09.77A10.12,10.12,0,0,1,90.52,50c-.13.45-.31.88-.48,1.31a.36.36,0,0,1,0,.09,12.51,12.51,0,0,1-.62,1.21,9.92,9.92,0,0,1-.74,1.16l-.39.54c-.14.18-.28.34-.42.5a14.68,14.68,0,0,1-1.77,1.76c-.6.51-1.23.91-1.79,1.3-.86.59-3,2.33-3.57,3.64s-1.7,4.66-1.93,5.1h0C75.92,73.71,65,71.1,53.15,73.05c-13.8,2.28-19.64,6.72-21.24,5.68h0a8.27,8.27,0,0,1-.66-.51l-.11-.1-.33-.33-.07-.06-.3-.35a12.87,12.87,0,0,1-1.12-1.57,16.15,16.15,0,0,1-1.54-3.39c-.09-.3-.19-.59-.26-.9s-.13-.6-.19-.89c-.13-1.08-.77-1.07-2-.9-.56.07-1.2.11-1.9.13-.33,0-.67,0-1,0h-.11c-.36-.05-.73-.12-1.1-.2a10.56,10.56,0,0,1-2.38-.91c-.19-.11-.4-.2-.59-.33L17.68,68a9.89,9.89,0,0,1-1.09-.87c-.33-.3-.63-.63-.94-1a.39.39,0,0,1-.08-.1c-.26-.33-.53-.67-.78-1l-.07-.11-.33-.55-.18-.3-.09-.15,0,0,0-.1,0-.07-.26-.57a4.64,4.64,0,0,1-.26-.62,8.22,8.22,0,0,1-.42-1.42L13,60.48A1,1,0,0,1,12.94,60.31Zm2.4-.81.09.48.14.49a3.39,3.39,0,0,0,.17.48l.19.46a3.59,3.59,0,0,0,.25.54l.29.56,0,.05v0l.08.12.15.24.3.48c.2.29.42.58.63.86l.08.1c.24.26.45.55.69.79a12,12,0,0,0,1.65,1.41,10.44,10.44,0,0,0,1.78,1c.28.13.57.24.84.35l.1,0c.28.09.55.19.82.26a9.28,9.28,0,0,0,1.59.27,5.55,5.55,0,0,0,.69,0,5.28,5.28,0,0,0,.59,0l.47-.06a1.26,1.26,0,0,0,.25-.07c0-.21.06-.43.11-.64a5.28,5.28,0,0,1,.38-1.12,4.66,4.66,0,0,1,.4-.68,3,3,0,0,1,.55-.58A4.24,4.24,0,0,0,28.15,67a2.88,2.88,0,0,0,0,.83,14.32,14.32,0,0,0,3.37,7.05,1.69,1.69,0,0,0,2.27.25c3-2.25,9.51-6.12,21.23-9.3,14.9-4,20.42-1.69,22.37-.33a13.37,13.37,0,0,0,2.08-7.17c-.11-.34-.23-.69-.38-1a16.28,16.28,0,0,0-2.61-4.15,16.86,16.86,0,0,0-4.18-3.44,16.5,16.5,0,0,0-2.59-1.2c-.46-.16-.91-.32-1.39-.44s-1-.24-1.43-.35a22.52,22.52,0,0,0-6-.33,36.16,36.16,0,0,0-6.08,1l-3.05.77L48.84,50c-.92.33-1.82.67-2.71,1l-.07,0-2.5,1-.07,0c-.8.39-1.59.76-2.34,1.14l-1.1.6a10.8,10.8,0,0,0-1.06.6c-.67.41-1.33.8-1.91,1.22l-.85.57-.06.05-.76.58A30.74,30.74,0,0,0,32.86,59c-.65.67-1.16,1.2-1.47,1.6s-.47.62-.47.62a7.15,7.15,0,0,1,.34-.71,17.26,17.26,0,0,1,1.19-1.87A23.32,23.32,0,0,1,34.71,56l.71-.7,0,0,.79-.71c.56-.52,1.2-1,1.85-1.49.33-.26.67-.49,1-.73l1.09-.74c.74-.48,1.54-.91,2.35-1.39l.06,0c.83-.43,1.69-.86,2.57-1.3S47,48.12,48,47.72l.07,0,3-1.05c1-.31,2-.59,3-.87a33.63,33.63,0,0,1,6.59-1.12,25.54,25.54,0,0,1,6.76.47,18.57,18.57,0,0,1,6.13,2.53,15.76,15.76,0,0,1,2.51,2,18.47,18.47,0,0,1,2,2.27,15.81,15.81,0,0,1,2.5,4.9c.12.4.22.82.3,1.23,0,.2.07.44.09.65v0l.07-.06.49-.39.54-.48c.19-.17.39-.36.59-.56a7.64,7.64,0,0,0,.63-.64,9.17,9.17,0,0,0,.65-.72c.22-.25.46-.5.67-.79s.45-.55.65-.85l.33-.45c.11-.15.2-.31.31-.47a20.26,20.26,0,0,0,1.15-2c.18-.32.29-.67.45-1l0-.11c.12-.34.25-.68.35-1a8.43,8.43,0,0,0,.26-1c0-.16.06-.29.08-.45l0-.12,0-.58v-.28h0v-.84c0-.38,0-.77,0-1.14A11.72,11.72,0,0,0,88,42.61a7.75,7.75,0,0,0-.63-1.74,8.12,8.12,0,0,0-.9-1.35c-.33-.38-.64-.72-.91-1l-.07-.06-.1.3-.19.47c-.12.28-.24.54-.37.79a14.19,14.19,0,0,1-1.75,2.6,20.08,20.08,0,0,1-1.81,1.85c-.58.5-1.11.91-1.55,1.23a14.53,14.53,0,0,1-1.44.92l.31-.32c.2-.21.49-.51.84-.92s.77-.9,1.21-1.49a19.83,19.83,0,0,0,1.38-2,15.29,15.29,0,0,0,1.21-2.54c.08-.23.16-.47.22-.7l.1-.34.09-.41a7.45,7.45,0,0,0,.13-1.45,9,9,0,0,0-.58-3.07,11.06,11.06,0,0,0-1.56-2.86,11.84,11.84,0,0,0-2.28-2.3,21.8,21.8,0,0,0-2.79-1.71,13.85,13.85,0,0,0-2.78-1.06,9.7,9.7,0,0,0-2.61-.3,9.24,9.24,0,0,0-2.26.34,2.78,2.78,0,0,0-2,2.65,15,15,0,0,1-.32,2c-.29,1.25-.64,2.39-1,3.43s-.71,2-1.05,2.79-.64,1.53-.91,2.11c-.53,1.15-.89,1.79-.89,1.79s.12-.72.35-2c.11-.62.25-1.38.41-2.24s.32-1.83.5-2.89.36-2.19.48-3.38a15.12,15.12,0,0,0,.1-1.77c0-.14,0-.27,0-.42l0-.16v-.08l0-.11a4.87,4.87,0,0,0-.21-.79,7.16,7.16,0,0,0-1.89-2.88,8.06,8.06,0,0,0-3.15-1.76,13.41,13.41,0,0,0-3.82-.53l-1,0-.53,0-.48,0c-.67.06-1.33.13-2,.24-3.67.6-7.38,3.74-5.49,8.71a15.33,15.33,0,0,1,.75,2.92c.15.88.23,1.65.28,2.28s.07,1.13.08,1.47v.52L47,37c-.06-.33-.17-.81-.31-1.43s-.33-1.35-.6-2.17A20.21,20.21,0,0,0,45,30.75,12.29,12.29,0,0,0,43.17,28a5.24,5.24,0,0,0-2.91-1.55,9.64,9.64,0,0,0-3.67,0A12,12,0,0,0,33,27.72a10.06,10.06,0,0,0-2.9,2.33,8.1,8.1,0,0,0-1.63,3.11,9,9,0,0,0-.27,1.7,11.51,11.51,0,0,0,0,1.67l.06.46c0,.11,0,.23.05.35s.12.48.2.73a13.9,13.9,0,0,0,.6,1.43c.45.93.94,1.77,1.38,2.5s.88,1.37,1.23,1.9c.71,1,1.15,1.62,1.15,1.62l-.43-.29c-.28-.2-.69-.5-1.18-.92a20.13,20.13,0,0,1-1.7-1.57,18.85,18.85,0,0,1-2-2.33c-.33-.46-2-3-3.35-2.47-.57.21-1.24.37-1.91.64a9.4,9.4,0,0,0-2,1.06,5.92,5.92,0,0,0-.83.74,4.46,4.46,0,0,0-.34.42,3.64,3.64,0,0,0-.33.52,8.69,8.69,0,0,0-.94,2.35,10.19,10.19,0,0,0-.3,2.64A11.06,11.06,0,0,0,18,49a11.26,11.26,0,0,0,1,2.39c.11.18.22.36.34.53l0,0h0c-.05-.06,0,0,0,0l0,0,.05.07.1.14.21.29c.13.2.26.33.38.49l.39.47a22,22,0,0,0,1.65,1.68c.55.51,1.08,1,1.56,1.34s.9.72,1.27,1l.84.61.31.22a11.06,11.06,0,0,1-1.4-.35,16.94,16.94,0,0,1-3.51-1.52,15.49,15.49,0,0,1-2.15-1.49c-.19-.14-.36-.31-.55-.48a1,1,0,0,0-1.66.23A10.58,10.58,0,0,0,16,56c-.15.25-.24.53-.37.8a6.42,6.42,0,0,0-.23.86,6.85,6.85,0,0,0-.11.91c0,.15,0,.31,0,.47v.23C15.31,59.33,15.33,59.42,15.34,59.5Z" transform="translate(-12.89 -18.7)"/></g></g></svg>