<svg xmlns="http://www.w3.org/2000/svg" xmlns:xlink="http://www.w3.org/1999/xlink" viewBox="0 0 594 953.41"><defs><style>.cls-1{isolation:isolate;}.cls-2{opacity:0.17;fill:url(#linear-gradient);}.cls-3{fill:#5e63ad;opacity:0;mix-blend-mode:soft-light;}.cls-4{fill:#dad3d6;stroke:#dad3d6;stroke-miterlimit:10;stroke-width:2px;}</style><linearGradient id="linear-gradient" x1="246.53" y1="591.6" x2="531.87" y2="591.6" gradientUnits="userSpaceOnUse"><stop offset="0" stop-color="#96ba3d"/><stop offset="1" stop-color="#6eb944"/></linearGradient></defs><g class="cls-1"><g id="Layer_2" data-name="Layer 2"><g id="Layer_1-2" data-name="Layer 1"><circle class="cls-2" cx="389.2" cy="591.6" r="142.67"/><circle class="cls-3" cx="442.66" cy="653.98" r="142.67" transform="translate(-332.78 504.55) rotate(-45)"/><polygon class="cls-4" points="586.94 952.41 592.2 952.41 1 3.5 1 11.93 586.94 952.41"/><polygon class="cls-4" points="1 92.27 536.89 952.41 542.15 952.41 1 83.84 1 92.27"/><polygon class="cls-4" points="1 172.61 486.83 952.41 492.09 952.41 1 164.18 1 172.61"/><polygon class="cls-4" points="1 252.95 436.78 952.41 442.04 952.41 1 244.51 1 252.95"/><polygon class="cls-4" points="1 333.29 386.73 952.41 391.98 952.41 1 324.86 1 333.29"/><polygon class="cls-4" points="1 413.63 336.67 952.41 341.93 952.41 1 405.19 1 413.63"/><polygon class="cls-4" points="1 493.97 286.62 952.41 291.88 952.41 1 485.53 1 493.97"/><polygon class="cls-4" points="1 574.31 236.56 952.41 241.82 952.41 1 565.88 1 574.31"/><polygon class="cls-4" points="1 654.65 186.51 952.41 191.77 952.41 1 646.21 1 654.65"/><polygon class="cls-4" points="1 734.99 136.46 952.41 141.72 952.41 1 726.55 1 734.99"/><polygon class="cls-4" points="1 815.33 86.4 952.41 91.66 952.41 1 806.89 1 815.33"/><polygon class="cls-4" points="1 895.67 36.35 952.41 41.61 952.41 1 887.23 1 895.67"/></g></g></g></svg>