<?xml version="1.0" encoding="utf-8"?>
<!-- Generator: Adobe Illustrator 25.1.0, SVG Export Plug-In . SVG Version: 6.00 Build 0)  -->
<svg version="1.1" id="Capa_1" xmlns="http://www.w3.org/2000/svg" xmlns:xlink="http://www.w3.org/1999/xlink" x="0px" y="0px"
	 viewBox="0 0 512 512" style="enable-background:new 0 0 512 512;" xml:space="preserve">
<style type="text/css">
	.st0{stroke:#000000;stroke-width:8;stroke-miterlimit:10;}
</style>
<g>
	<g>
		<path d="M497,403l-37.9-214.7c-7.9-44.4-46.3-76.7-91.4-76.7H314c8.1-11.5,12.9-25.6,12.9-40.7C326.9,31.8,295.1,0,256,0
			s-70.9,31.8-70.9,70.9c0,15.1,4.8,29.2,12.9,40.7h-53.7c-45.1,0-83.6,32.3-91.4,76.7L15,403c-4.8,27.1,2.6,54.7,20.3,75.8
			c17.7,21.1,43.6,33.2,71.1,33.2h299.2c27.5,0,53.4-12.1,71.1-33.2C494.4,457.7,501.8,430.1,497,403z M256,30.2
			c22.4,0,40.7,18.3,40.7,40.7s-18.3,40.7-40.7,40.7s-40.7-18.3-40.7-40.7S233.6,30.2,256,30.2z M453.6,459.4
			c-11.9,14.2-29.4,22.4-48,22.4H106.4c-18.6,0-36-8.2-48-22.4s-16.9-32.9-13.7-51.1l37.9-214.7c5.3-30,31.2-51.7,61.7-51.7h223.4
			c30.4,0,56.4,21.8,61.7,51.7l37.9,214.7C470.5,426.5,465.5,445.2,453.6,459.4z"/>
	</g>
</g>
<g>
	<path class="st0" d="M156.6,286.9v61.2h34.5c2.8,0,4.9,0.7,6.3,2c1.5,1.3,2.2,3,2.2,5c0,2.1-0.7,3.7-2.2,5
		c-1.5,1.3-3.6,1.9-6.4,1.9H150c-3.7,0-6.4-0.8-8-2.5c-1.6-1.6-2.4-4.3-2.4-8v-64.8c0-3.4,0.8-6,2.3-7.7s3.6-2.6,6.1-2.6
		c2.6,0,4.6,0.9,6.2,2.6C155.8,280.8,156.6,283.4,156.6,286.9z"/>
	<path class="st0" d="M257.7,362.1H232c-3.7,0-6.4-0.8-7.9-2.5c-1.6-1.7-2.4-4.3-2.4-7.9v-63.2c0-3.7,0.8-6.4,2.4-8
		c1.6-1.6,4.3-2.4,7.9-2.4h27.2c4,0,7.5,0.2,10.4,0.7c2.9,0.5,5.6,1.5,7.9,2.9c2,1.2,3.7,2.7,5.3,4.5c1.5,1.8,2.7,3.8,3.5,6
		s1.2,4.5,1.2,7c0,8.4-4.2,14.6-12.6,18.5c11.1,3.5,16.6,10.4,16.6,20.5c0,4.7-1.2,8.9-3.6,12.7c-2.4,3.8-5.7,6.5-9.8,8.3
		c-2.6,1.1-5.5,1.8-8.8,2.3C266,361.9,262.2,362.1,257.7,362.1z M238.7,290.8v21.7h15.6c4.2,0,7.5-0.4,9.8-1.2s4.1-2.3,5.3-4.6
		c1-1.6,1.4-3.4,1.4-5.4c0-4.2-1.5-7.1-4.5-8.5c-3-1.4-7.6-2.1-13.8-2.1H238.7z M256.5,324.8h-17.7v24.6H257
		c11.5,0,17.3-4.1,17.3-12.4c0-4.2-1.5-7.3-4.5-9.2C266.8,325.7,262.4,324.8,256.5,324.8z"/>
	<path class="st0" d="M380.2,336.9c0,5.1-1.3,9.7-3.9,13.7s-6.5,7.2-11.5,9.5s-11,3.4-18,3.4c-8.3,0-15.1-1.6-20.5-4.7
		c-3.8-2.3-6.9-5.3-9.3-9c-2.4-3.8-3.6-7.4-3.6-11c0-2.1,0.7-3.8,2.2-5.3c1.4-1.5,3.3-2.2,5.5-2.2c1.8,0,3.3,0.6,4.6,1.7
		c1.2,1.1,2.3,2.8,3.2,5.1c1.1,2.7,2.2,4.9,3.5,6.7c1.2,1.8,3,3.3,5.2,4.4c2.3,1.2,5.2,1.7,8.9,1.7c5,0,9.1-1.2,12.3-3.5
		c3.2-2.4,4.7-5.3,4.7-8.8c0-2.8-0.9-5.1-2.6-6.8c-1.7-1.7-3.9-3.1-6.6-4s-6.3-1.9-10.8-2.9c-6-1.4-11.1-3.1-15.2-5
		c-4.1-1.9-7.3-4.5-9.7-7.7c-2.4-3.3-3.6-7.3-3.6-12.2c0-4.6,1.3-8.7,3.8-12.3c2.5-3.6,6.2-6.4,11-8.3c4.8-1.9,10.4-2.9,16.9-2.9
		c5.2,0,9.6,0.6,13.4,1.9c3.8,1.3,6.9,3,9.4,5.1c2.5,2.1,4.3,4.4,5.4,6.7c1.1,2.3,1.7,4.6,1.7,6.8c0,2-0.7,3.9-2.2,5.5
		c-1.4,1.6-3.2,2.4-5.4,2.4c-2,0-3.4-0.5-4.4-1.5c-1-1-2.1-2.6-3.3-4.8c-1.5-3.2-3.4-5.7-5.5-7.4s-5.6-2.7-10.3-2.7
		c-4.4,0-7.9,1-10.6,2.9c-2.7,1.9-4,4.3-4,7c0,1.7,0.5,3.1,1.4,4.4c0.9,1.2,2.2,2.3,3.8,3.2c1.6,0.9,3.2,1.6,4.9,2.1
		c1.6,0.5,4.4,1.2,8.1,2.2c4.7,1.1,9,2.3,12.9,3.7c3.8,1.3,7.1,3,9.8,4.9c2.7,1.9,4.8,4.3,6.3,7.3
		C379.5,329,380.2,332.6,380.2,336.9z"/>
</g>
</svg>
